<?xml version="1.0" encoding="UTF-8" standalone="no"?>
<svg width="287px" height="43px" viewBox="0 0 287 43" version="1.1" xmlns="http://www.w3.org/2000/svg" xmlns:xlink="http://www.w3.org/1999/xlink">
    <!-- Generator: sketchtool 3.6.1 (26313) - http://www.bohemiancoding.com/sketch -->
    <title>Logo</title>
    <desc>Created with sketchtool.</desc>
    <defs>
        <path id="path-1" d="M0,0.972 L286.978,0.972 L286.978,44 L0,44 L0,0.972 Z"></path>
    </defs>
    <g id="Home---New-Content-v3" stroke="none" stroke-width="1" fill="none" fill-rule="evenodd">
        <g id="Home_v3c" transform="translate(-115.000000, -25.000000)">
            <g id="Header">
                <g id="Logo" transform="translate(115.000000, 24.000000)">
                    <path d="M194.4059,27.5459 C194.2139,28.0889 193.9519,28.5299 193.6189,28.8709 C193.2869,29.2179 192.9139,29.4749 192.4889,29.6379 C192.0689,29.8049 191.6319,29.8829 191.1719,29.8829 C190.4659,29.8779 189.8539,29.7049 189.3239,29.3519 C188.7929,29.0049 188.3859,28.5129 188.0889,27.8759 C187.7909,27.2389 187.6459,26.4889 187.6389,25.6229 C187.6459,24.7389 187.8139,23.9899 188.1349,23.3749 C188.4549,22.7599 188.8869,22.2959 189.4169,21.9769 C189.9469,21.6579 190.5359,21.4959 191.1719,21.4959 C191.7659,21.5009 192.2849,21.6189 192.7279,21.8479 C193.1709,22.0769 193.5379,22.3849 193.8289,22.7769 C194.1209,23.1679 194.3419,23.6099 194.4879,24.1019 C194.6339,24.5879 194.7039,25.0969 194.7039,25.6229 C194.6979,26.3659 194.5989,27.0089 194.4059,27.5459 L194.4059,27.5459 Z M194.5289,10.5929 L194.5289,17.2019 C194.5289,17.4259 194.5349,17.6099 194.5459,17.7499 L194.5639,17.9739 L194.4939,17.9739 C194.4999,17.9679 194.4239,17.8949 194.2659,17.7609 C194.1149,17.6219 193.8589,17.4649 193.4969,17.2859 C193.1419,17.1069 192.6519,16.9499 192.0459,16.8109 C191.4339,16.6759 190.6759,16.6039 189.7729,16.5979 C188.5719,16.6039 187.4699,16.8159 186.4679,17.2409 C185.4659,17.6609 184.6019,18.2699 183.8679,19.0579 C183.1339,19.8519 182.5689,20.7969 182.1659,21.9039 C181.7639,23.0119 181.5599,24.2529 181.5549,25.6229 C181.5599,26.9699 181.7529,28.1949 182.1319,29.3019 C182.5159,30.4079 183.0639,31.3649 183.7749,32.1639 C184.4859,32.9639 185.3429,33.5839 186.3329,34.0209 C187.3309,34.4569 188.4379,34.6749 189.6679,34.6809 C190.4079,34.6749 191.0609,34.5859 191.6319,34.4179 C192.2029,34.2499 192.6929,34.0429 193.1069,33.7969 C193.5149,33.5459 193.8529,33.2999 194.1149,33.0479 C194.3769,32.8019 194.5699,32.5949 194.6919,32.4269 C194.8199,32.2599 194.8779,32.1699 194.8779,32.1639 L194.9479,32.1639 L194.9309,32.4499 C194.9189,32.6339 194.9139,32.8629 194.9139,33.1369 L194.9139,34.2779 L200.5789,34.2779 L200.5789,10.5929 L194.5289,10.5929 Z" id="Fill-1" fill="#00354A"></path>
                    <path d="M150.332,23.4417 C150.437,23.0117 150.606,22.6087 150.839,22.2287 C151.072,21.8537 151.381,21.5517 151.777,21.3167 C152.168,21.0877 152.657,20.9647 153.234,20.9587 C153.718,20.9647 154.132,21.0827 154.487,21.3107 C154.843,21.5407 155.117,21.8427 155.315,22.2167 C155.513,22.5917 155.612,23.0007 155.612,23.4417 L150.332,23.4417 Z M161.143,21.6247 C160.776,20.6067 160.24,19.7237 159.529,18.9747 C158.818,18.2247 157.95,17.6427 156.918,17.2297 C155.886,16.8157 154.703,16.6037 153.374,16.5977 C151.923,16.6037 150.617,16.8377 149.463,17.2967 C148.309,17.7557 147.324,18.3927 146.514,19.2097 C145.698,20.0307 145.08,20.9817 144.649,22.0767 C144.224,23.1677 144.008,24.3477 144.002,25.6227 C144.002,26.5447 144.142,27.4507 144.416,28.3287 C144.69,29.2067 145.092,30.0287 145.634,30.7947 C146.17,31.5607 146.84,32.2367 147.633,32.8137 C148.431,33.3947 149.353,33.8537 150.402,34.1777 C151.445,34.5077 152.611,34.6757 153.899,34.6807 C154.86,34.6757 155.741,34.5857 156.539,34.4177 C157.337,34.2497 158.054,34.0427 158.678,33.7967 C159.302,33.5457 159.832,33.2997 160.263,33.0477 C160.695,32.8017 161.027,32.5947 161.254,32.4267 C161.476,32.2597 161.592,32.1697 161.592,32.1647 L159.354,28.1047 C159.348,28.1167 159.209,28.2057 158.94,28.3797 C158.672,28.5527 158.305,28.7477 157.845,28.9777 C157.378,29.2067 156.848,29.4027 156.253,29.5757 C155.665,29.7487 155.041,29.8387 154.388,29.8497 C153.742,29.8497 153.124,29.7437 152.547,29.5197 C151.97,29.2967 151.468,28.9607 151.055,28.5017 C150.641,28.0437 150.349,27.4677 150.192,26.7637 L161.557,26.7637 C161.557,26.7567 161.563,26.6907 161.581,26.5617 L161.627,26.0697 C161.645,25.8737 161.662,25.6787 161.674,25.4777 C161.691,25.2757 161.697,25.0967 161.697,24.9517 C161.697,23.7437 161.511,22.6367 161.143,21.6247 L161.143,21.6247 Z" id="Fill-3" fill="#00354A"></path>
                    <path d="M104.7686,27.5459 C104.5766,28.0889 104.3146,28.5299 103.9816,28.8709 C103.6496,29.2179 103.2766,29.4749 102.8516,29.6379 C102.4316,29.8049 101.9946,29.8829 101.5346,29.8829 C100.8286,29.8779 100.2166,29.7049 99.6866,29.3519 C99.1556,29.0049 98.7486,28.5129 98.4506,27.8759 C98.1536,27.2389 98.0086,26.4889 98.0016,25.6229 C98.0086,24.7389 98.1766,23.9899 98.4976,23.3749 C98.8176,22.7599 99.2496,22.2959 99.7796,21.9769 C100.3096,21.6579 100.8986,21.4959 101.5346,21.4959 C102.1286,21.5009 102.6476,21.6189 103.0906,21.8479 C103.5336,22.0769 103.9006,22.3849 104.1916,22.7769 C104.4836,23.1679 104.7046,23.6099 104.8506,24.1019 C104.9966,24.5879 105.0666,25.0969 105.0666,25.6229 C105.0606,26.3659 104.9616,27.0089 104.7686,27.5459 L104.7686,27.5459 Z M104.8916,10.5929 L104.8916,17.2019 C104.8916,17.4259 104.8976,17.6099 104.9086,17.7499 L104.9266,17.9739 L104.8566,17.9739 C104.8616,17.9679 104.7866,17.8949 104.6286,17.7609 C104.4776,17.6219 104.2206,17.4649 103.8596,17.2859 C103.5036,17.1069 103.0146,16.9499 102.4076,16.8109 C101.7966,16.6759 101.0386,16.6039 100.1356,16.5979 C98.9346,16.6039 97.8326,16.8159 96.8306,17.2409 C95.8286,17.6609 94.9656,18.2699 94.2306,19.0579 C93.4966,19.8519 92.9316,20.7969 92.5286,21.9039 C92.1266,23.0119 91.9226,24.2529 91.9176,25.6229 C91.9226,26.9699 92.1156,28.1949 92.4936,29.3019 C92.8786,30.4079 93.4266,31.3649 94.1376,32.1639 C94.8486,32.9639 95.7056,33.5839 96.6966,34.0209 C97.6936,34.4569 98.8006,34.6749 100.0306,34.6809 C100.7706,34.6749 101.4236,34.5859 101.9946,34.4179 C102.5656,34.2499 103.0556,34.0429 103.4696,33.7969 C103.8766,33.5459 104.2156,33.2999 104.4776,33.0479 C104.7396,32.8019 104.9326,32.5949 105.0546,32.4269 C105.1826,32.2599 105.2406,32.1699 105.2406,32.1639 L105.3106,32.1639 L105.2936,32.4499 C105.2816,32.6339 105.2756,32.8629 105.2756,33.1369 L105.2756,34.2779 L110.9416,34.2779 L110.9416,10.5929 L104.8916,10.5929 Z" id="Fill-5" fill="#00354A"></path>
                    <path d="M79.107,24.5492 L80.541,19.8852 C80.635,19.5782 80.727,19.2422 80.821,18.8792 C80.914,18.5102 81.007,18.1472 81.095,17.7832 C81.182,17.4142 81.258,17.0782 81.328,16.7762 C81.398,16.4742 81.456,16.2292 81.491,16.0442 L81.555,15.7592 L81.625,15.7592 L81.689,16.0442 C81.73,16.2292 81.782,16.4742 81.852,16.7762 L82.085,17.7832 C82.173,18.1472 82.266,18.5102 82.359,18.8792 C82.453,19.2422 82.546,19.5782 82.639,19.8852 L84.038,24.5492 L79.107,24.5492 Z M84.807,10.2912 L78.373,10.2912 L69.875,34.2782 L76.17,34.2782 L77.673,29.2462 L85.472,29.2462 L87.011,34.2782 L93.305,34.2782 L84.807,10.2912 Z" id="Fill-7" fill="#00354A"></path>
                    <path d="M180.2307,20.0087 C180.5627,20.8417 180.7257,21.8597 180.7317,23.0727 L180.7317,34.2777 L174.6817,34.2777 L174.6817,24.1467 C174.6817,23.3467 174.5187,22.7657 174.1867,22.4017 C173.8547,22.0387 173.3527,21.8597 172.6887,21.8647 C172.0597,21.8647 171.5107,21.9707 171.0387,22.1777 C170.5727,22.3847 170.1767,22.6757 169.8617,23.0447 C169.5417,23.4197 169.2967,23.8497 169.1217,24.3477 C168.9987,24.6827 168.9117,25.0407 168.8537,25.4267 C168.8007,25.8077 168.7717,26.2097 168.7717,26.6287 L168.7717,34.2777 L162.7217,34.2777 L162.7217,16.9997 L168.5267,16.9997 L168.5267,18.5097 C168.5207,18.8067 168.5097,19.0527 168.4917,19.2597 L168.4567,19.5837 L168.5267,19.5837 C168.7367,19.2427 169.0057,18.8957 169.3317,18.5487 C169.6577,18.2027 170.0547,17.8837 170.5147,17.5877 C170.9807,17.2917 171.5227,17.0567 172.1407,16.8777 C172.7647,16.6927 173.4697,16.6037 174.2627,16.5977 C175.1777,16.5917 176.0287,16.7047 176.8087,16.9277 C177.5897,17.1457 178.2727,17.5097 178.8607,18.0127 C179.4497,18.5097 179.9037,19.1757 180.2307,20.0087" id="Fill-9" fill="#00354A"></path>
                    <path d="M141.6366,17.5205 C141.0656,17.2635 140.3956,17.0455 139.6206,16.8725 C138.8506,16.6925 137.9766,16.6035 136.9976,16.5975 C135.7036,16.6035 134.5266,16.7655 133.4716,17.0895 C132.4106,17.4145 131.4776,17.8675 130.6676,18.4425 C129.8636,19.0195 129.1816,19.6845 128.6336,20.4445 C128.0796,21.2055 127.6656,22.0275 127.3856,22.9055 C127.1006,23.7825 126.9606,24.6885 126.9606,25.6225 C126.9606,26.5785 127.1066,27.5065 127.3856,28.3955 C127.6716,29.2855 128.0856,30.1065 128.6396,30.8675 C129.1926,31.6275 129.8746,32.2935 130.6846,32.8635 C131.4956,33.4335 132.4276,33.8755 133.4826,34.1945 C134.5376,34.5125 135.7096,34.6755 136.9976,34.6805 C138.0056,34.6755 138.9146,34.5745 139.7366,34.3845 C140.5526,34.1945 141.2696,33.9595 141.8936,33.6745 C142.5166,33.3945 143.0356,33.1155 143.4556,32.8305 C143.8746,32.5505 144.1896,32.3155 144.4056,32.1255 C144.6206,31.9355 144.7256,31.8345 144.7256,31.8285 L142.5226,27.7695 C142.5166,27.7755 142.4296,27.8475 142.2486,27.9875 C142.0736,28.1225 141.8296,28.2955 141.5146,28.5015 C141.1996,28.7085 140.8326,28.9105 140.4126,29.1175 C139.9986,29.3245 139.5496,29.4975 139.0716,29.6315 C138.5946,29.7715 138.0986,29.8445 137.5916,29.8495 C136.8346,29.8445 136.1696,29.7155 135.6046,29.4635 C135.0386,29.2175 134.5666,28.8875 134.1936,28.4685 C133.8206,28.0545 133.5416,27.5955 133.3596,27.0875 C133.1736,26.5845 133.0806,26.0755 133.0806,25.5555 C133.0806,25.0355 133.1686,24.5375 133.3486,24.0455 C133.5296,23.5595 133.7976,23.1175 134.1526,22.7255 C134.5146,22.3285 134.9626,22.0155 135.4996,21.7865 C136.0356,21.5515 136.6646,21.4345 137.3816,21.4295 C138.0056,21.4345 138.5766,21.5235 139.0896,21.6915 C139.6086,21.8535 140.0516,22.0495 140.4306,22.2675 C140.8026,22.4855 141.0946,22.6755 141.2986,22.8435 C141.5086,23.0115 141.6136,23.0955 141.6136,23.1065 L144.1666,19.2145 C144.1666,19.2095 144.0726,19.1145 143.8926,18.9405 C143.7056,18.7675 143.4256,18.5485 143.0526,18.2925 C142.6796,18.0345 142.2076,17.7785 141.6366,17.5205" id="Fill-11" fill="#00354A"></path>
                    <path d="M123.0223,24.4987 C123.6173,24.8067 124.1703,25.1697 124.6663,25.5997 C125.1673,26.0307 125.5693,26.5447 125.8723,27.1377 C126.1753,27.7247 126.3323,28.4177 126.3383,29.2117 C126.3383,29.9557 126.1703,30.6547 125.8373,31.3147 C125.5113,31.9687 125.0273,32.5507 124.3923,33.0537 C123.7623,33.5567 122.9873,33.9537 122.0783,34.2387 C121.1633,34.5297 120.1263,34.6747 118.9593,34.6807 C118.0563,34.6747 117.2283,34.5857 116.4773,34.4177 C115.7253,34.2447 115.0603,34.0327 114.4783,33.7797 C113.8893,33.5287 113.3993,33.2767 112.9913,33.0257 C112.5893,32.7797 112.2803,32.5667 112.0703,32.3937 C111.8613,32.2257 111.7563,32.1357 111.7563,32.1307 L114.3433,28.2397 C114.3493,28.2507 114.4663,28.3397 114.6933,28.5127 C114.9263,28.6867 115.2473,28.8827 115.6673,29.1117 C116.0803,29.3407 116.5643,29.5367 117.1183,29.7097 C117.6723,29.8827 118.2723,29.9727 118.9253,29.9837 C119.2343,29.9837 119.5193,29.9557 119.7933,29.8997 C120.0613,29.8437 120.2833,29.7597 120.4463,29.6427 C120.6153,29.5197 120.7033,29.3687 120.7083,29.1787 C120.7033,28.9657 120.5453,28.7707 120.2423,28.5917 C119.9393,28.4177 119.5373,28.2397 119.0353,28.0547 C118.5403,27.8707 117.9923,27.6697 117.3923,27.4397 C116.7923,27.2167 116.1973,26.9477 115.5963,26.6347 C115.0023,26.3217 114.4483,25.9527 113.9533,25.5157 C113.4523,25.0797 113.0503,24.5657 112.7473,23.9667 C112.4443,23.3697 112.2863,22.6647 112.2803,21.8647 C112.2863,21.0487 112.4783,20.3157 112.8523,19.6677 C113.2303,19.0187 113.7553,18.4657 114.4253,18.0127 C115.1013,17.5547 115.8823,17.2077 116.7803,16.9607 C117.6773,16.7207 118.6513,16.5977 119.6943,16.5977 C120.5333,16.6037 121.2913,16.6707 121.9623,16.8047 C122.6383,16.9337 123.2263,17.1007 123.7333,17.2967 C124.2403,17.4867 124.6663,17.6827 125.0043,17.8777 C125.3423,18.0737 125.5983,18.2417 125.7673,18.3707 C125.9363,18.5037 126.0243,18.5717 126.0243,18.5777 L123.9613,22.7037 C123.9613,22.6977 123.8563,22.6197 123.6463,22.4857 C123.4423,22.3457 123.1503,22.1837 122.7723,21.9987 C122.3933,21.8147 121.9443,21.6527 121.4253,21.5127 C120.9003,21.3727 120.3293,21.3007 119.6943,21.2947 C119.3853,21.2947 119.0993,21.3227 118.8263,21.3787 C118.5583,21.4347 118.3423,21.5237 118.1733,21.6477 C118.0043,21.7697 117.9173,21.9327 117.9103,22.1337 C117.9173,22.3177 118.0743,22.4857 118.3773,22.6427 C118.6803,22.8047 119.0823,22.9667 119.5833,23.1337 C120.0793,23.3017 120.6323,23.4977 121.2273,23.7157 C121.8273,23.9337 122.4223,24.1967 123.0223,24.4987" id="Fill-13" fill="#00354A"></path>
                    <path d="M283.621,26.6259 C283.621,27.2629 283.51,27.8999 283.289,28.5319 C283.067,29.1639 282.747,29.7459 282.339,30.2709 C281.925,30.7969 281.43,31.2159 280.847,31.5349 C280.269,31.8539 279.617,32.0209 278.9,32.0269 C278.166,32.0209 277.554,31.8869 277.058,31.6299 C276.569,31.3729 276.196,31.0369 275.951,30.6239 C275.7,30.2149 275.578,29.7739 275.578,29.3099 C275.584,28.6999 275.753,28.2029 276.079,27.7999 C276.405,27.4029 276.831,27.0899 277.367,26.8549 C277.898,26.6259 278.486,26.4529 279.121,26.3399 C279.757,26.2339 280.393,26.1609 281.022,26.1279 C281.651,26.0999 282.228,26.0839 282.747,26.0889 L283.621,26.0889 L283.621,26.6259 Z M286.163,19.8769 C285.62,18.8869 284.827,18.1379 283.79,17.6289 C282.747,17.1199 281.482,16.8629 279.984,16.8629 C279.174,16.8689 278.422,16.9359 277.74,17.0699 C277.053,17.2039 276.446,17.3719 275.904,17.5739 C275.368,17.7689 274.908,17.9699 274.535,18.1659 C274.156,18.3669 273.87,18.5299 273.672,18.6629 C273.474,18.7979 273.375,18.8699 273.375,18.8759 L274.774,21.2579 C274.779,21.2469 274.908,21.1629 275.159,21.0009 C275.415,20.8389 275.764,20.6479 276.213,20.4359 C276.668,20.2239 277.186,20.0339 277.781,19.8709 C278.375,19.7089 279.016,19.6199 279.704,19.6139 C280.456,19.6079 281.127,19.7259 281.704,19.9609 C282.287,20.1959 282.747,20.5869 283.079,21.1349 C283.412,21.6829 283.58,22.4149 283.586,23.3379 L283.586,23.6399 L282.817,23.6399 C282.31,23.6339 281.704,23.6509 280.992,23.6849 C280.287,23.7179 279.53,23.7909 278.731,23.9079 C277.933,24.0259 277.146,24.2109 276.371,24.4559 C275.595,24.7079 274.89,25.0429 274.255,25.4739 C273.619,25.9039 273.112,26.4469 272.733,27.1009 C272.355,27.7549 272.163,28.5489 272.151,29.4769 C272.157,30.3269 272.331,31.0709 272.664,31.7139 C272.996,32.3569 273.45,32.8989 274.016,33.3299 C274.587,33.7659 275.228,34.0899 275.945,34.3139 C276.656,34.5319 277.396,34.6439 278.166,34.6439 C279.01,34.6329 279.751,34.5209 280.38,34.2969 C281.01,34.0739 281.546,33.7939 281.989,33.4639 C282.426,33.1339 282.788,32.7989 283.055,32.4689 C283.33,32.1389 283.522,31.8599 283.65,31.6359 C283.772,31.4119 283.831,31.2999 283.831,31.2889 L283.901,31.2889 L283.866,31.6689 C283.848,31.9149 283.837,32.2399 283.831,32.6309 L283.831,34.2409 L286.978,34.2409 L286.978,23.5059 C286.972,22.0739 286.704,20.8609 286.163,19.8769 L286.163,19.8769 Z" id="Fill-15" fill="#00354A"></path>
                    <path d="M260.9272,28.4988 C260.6472,29.2698 260.2632,29.9078 259.7852,30.3938 C259.3012,30.8858 258.7592,31.2498 258.1532,31.4788 C257.5472,31.7138 256.9112,31.8258 256.2472,31.8258 C255.2612,31.8198 254.3932,31.5688 253.6482,31.0708 C252.8952,30.5728 252.3132,29.8738 251.8872,28.9678 C251.4672,28.0628 251.2522,26.9898 251.2462,25.7528 C251.2522,24.7858 251.3862,23.9298 251.6482,23.1758 C251.9162,22.4268 252.2842,21.7888 252.7502,21.2688 C253.2162,20.7488 253.7582,20.3578 254.3752,20.0898 C254.9882,19.8148 255.6462,19.6808 256.3522,19.6808 C257.1912,19.6868 257.9252,19.8598 258.5492,20.2008 C259.1792,20.5368 259.6972,20.9948 260.1112,21.5658 C260.5252,22.1408 260.8402,22.7838 261.0442,23.4998 C261.2472,24.2158 261.3522,24.9588 261.3522,25.7198 C261.3472,26.7988 261.2072,27.7268 260.9272,28.4988 L260.9272,28.4988 Z M261.2472,10.5558 L261.2472,18.4058 C261.2542,18.7308 261.2652,19.0038 261.2832,19.2168 L261.3182,19.5468 L261.2472,19.5468 C261.2472,19.5408 261.1902,19.4468 261.0732,19.2668 C260.9562,19.0878 260.7642,18.8638 260.5072,18.6018 C260.2452,18.3388 259.9072,18.0708 259.4822,17.8078 C259.0562,17.5448 258.5432,17.3218 257.9312,17.1428 C257.3202,16.9628 256.6082,16.8688 255.7922,16.8628 C254.6152,16.8688 253.5422,17.0758 252.5632,17.4948 C251.5902,17.9088 250.7452,18.5068 250.0342,19.2838 C249.3172,20.0608 248.7692,20.9948 248.3782,22.0848 C247.9882,23.1758 247.7902,24.3998 247.7842,25.7528 C247.7902,27.0728 247.9702,28.2798 248.3322,29.3658 C248.6872,30.4498 249.2062,31.3838 249.8882,32.1728 C250.5642,32.9608 251.3862,33.5698 252.3422,33.9958 C253.3042,34.4198 254.3822,34.6378 255.5822,34.6438 C256.4572,34.6328 257.2152,34.5268 257.8672,34.3138 C258.5142,34.1068 259.0622,33.8438 259.5162,33.5308 C259.9652,33.2238 260.3272,32.9108 260.6072,32.6028 C260.8802,32.2898 261.0782,32.0268 261.2072,31.8198 C261.3292,31.6078 261.3872,31.5018 261.3872,31.4898 L261.4572,31.4898 L261.4402,31.8088 C261.4282,32.0158 261.4232,32.2898 261.4232,32.6308 L261.4232,34.2408 L264.6402,34.2408 L264.6402,10.5558 L261.2472,10.5558 Z" id="Fill-17" fill="#00354A"></path>
                    <path d="M233.3349,23.8106 C233.5039,22.8826 233.8309,22.0946 234.3199,21.4516 C234.8039,20.8086 235.4099,20.3226 236.1269,19.9866 C236.8499,19.6506 237.6419,19.4836 238.5109,19.4836 C239.2799,19.4836 239.9739,19.6396 240.6029,19.9586 C241.2329,20.2716 241.7399,20.7526 242.1299,21.3896 C242.5209,22.0326 242.7359,22.8376 242.7779,23.8106 L233.3349,23.8106 Z M245.7439,21.7536 C245.4169,20.7966 244.9339,19.9526 244.2869,19.2266 C243.6399,18.4996 242.8409,17.9346 241.8859,17.5256 C240.9359,17.1126 239.8339,16.9056 238.5809,16.8996 C237.3159,16.9056 236.1439,17.1126 235.0719,17.5316 C233.9999,17.9456 233.0669,18.5436 232.2689,19.3206 C231.4699,20.0986 230.8529,21.0326 230.4089,22.1226 C229.9669,23.2126 229.7389,24.4366 229.7329,25.7896 C229.7389,27.0536 229.9669,28.2286 230.4149,29.3016 C230.8639,30.3806 231.5049,31.3196 232.3329,32.1196 C233.1669,32.9246 234.1509,33.5516 235.2929,33.9986 C236.4419,34.4456 237.7129,34.6756 239.1049,34.6806 C239.9559,34.6756 240.7319,34.5906 241.4429,34.4286 C242.1539,34.2666 242.7889,34.0716 243.3489,33.8306 C243.9019,33.5896 244.3799,33.3556 244.7649,33.1156 C245.1549,32.8746 245.4519,32.6786 245.6509,32.5166 C245.8549,32.3546 245.9599,32.2706 245.9599,32.2656 L244.5609,29.8826 C244.5609,29.8886 244.4729,29.9556 244.3099,30.0896 C244.1409,30.2186 243.9019,30.3866 243.5929,30.5826 C243.2789,30.7776 242.9119,30.9676 242.4739,31.1636 C242.0429,31.3596 241.5589,31.5266 241.0289,31.6556 C240.4989,31.7896 239.9269,31.8566 239.3149,31.8626 C238.5229,31.8626 237.7709,31.7456 237.0589,31.5096 C236.3489,31.2746 235.7189,30.9226 235.1599,30.4586 C234.5999,29.9896 234.1509,29.4076 233.8129,28.7026 C233.4749,28.0046 233.2769,27.1886 233.2299,26.2596 L246.1349,26.2596 L246.1639,25.9916 C246.1809,25.8236 246.1929,25.6286 246.2099,25.4096 C246.2279,25.1916 246.2389,25.0076 246.2389,24.8506 C246.2389,23.7436 246.0759,22.7156 245.7439,21.7536 L245.7439,21.7536 Z" id="Fill-19" fill="#00354A"></path>
                    <mask id="mask-2" fill="white">
                        <use xlink:href="#path-1"></use>
                    </mask>
                    <g id="Clip-22"></g>
                    <path d="M270.808,34.241 L267.416,34.241 L267.416,17.265 L270.808,17.265 L270.808,34.241 Z" id="Fill-21" fill="#00354A" mask="url(#mask-2)"></path>
                    <path d="M270.808,13.877 L267.381,13.877 L267.381,10.556 L270.808,10.556 L270.808,13.877 Z" id="Fill-23" fill="#00354A" mask="url(#mask-2)"></path>
                    <path d="M226.2573,10.5927 L228.2503,34.2777 L224.8233,34.2777 L223.5993,19.3487 C223.5763,18.9797 223.5593,18.5937 223.5533,18.1967 C223.5413,17.7947 223.5413,17.4147 223.5413,17.0617 C223.5473,16.7097 223.5533,16.4247 223.5533,16.2007 L223.5643,15.8597 L223.4953,15.8597 C223.4953,15.8657 223.4543,15.9877 223.3723,16.2237 C223.2913,16.4527 223.1863,16.7487 223.0523,17.1127 C222.9233,17.4757 222.7783,17.8567 222.6263,18.2527 C222.4693,18.6497 222.3173,19.0137 222.1653,19.3487 L217.2353,30.0177 L214.1573,30.0177 L209.2613,19.3487 C209.1213,19.0187 208.9703,18.6557 208.8193,18.2527 C208.6673,17.8567 208.5213,17.4647 208.3873,17.0897 C208.2533,16.7207 208.1483,16.4137 208.0613,16.1677 C207.9793,15.9267 207.9383,15.7987 207.9333,15.7927 L207.8623,15.7927 C207.8623,15.7987 207.8623,15.9157 207.8683,16.1447 L207.8683,17.0287 C207.8683,17.3917 207.8563,17.7777 207.8513,18.1857 C207.8403,18.5937 207.8163,18.9797 207.7933,19.3487 L206.6043,34.2777 L203.1413,34.2777 L205.1353,10.5927 L208.7723,10.5927 L214.4373,23.4077 C214.5773,23.7437 214.7233,24.0907 214.8623,24.4597 C215.0093,24.8227 215.1373,25.1697 215.2593,25.4937 C215.3813,25.8177 215.4753,26.0807 215.5503,26.2827 C215.6203,26.4837 215.6613,26.5897 215.6613,26.5957 L215.7313,26.5957 C215.7313,26.5897 215.7723,26.4837 215.8423,26.2827 C215.9173,26.0807 216.0113,25.8177 216.1333,25.4937 C216.2553,25.1697 216.3843,24.8227 216.5303,24.4597 C216.6693,24.0907 216.8153,23.7437 216.9553,23.4077 L222.6203,10.5927 L226.2573,10.5927 Z" id="Fill-24" fill="#00354A" mask="url(#mask-2)"></path>
                    <path d="M48.0956,34.2575 L47.0236,31.5505 C55.5876,23.4315 50.6386,7.1445 37.5726,7.6955 L36.9716,6.1775 C52.6746,4.7655 61.4956,22.5105 48.0956,34.2575 L48.0956,34.2575 Z M58.7666,12.2895 C51.8386,1.3155 37.3576,1.4855 26.4176,4.9575 C12.7156,9.3065 -3.4424,22.9675 3.0886,39.0705 L1.7726,41.3795 C-6.5684,20.4995 16.1986,4.0955 35.0976,1.4455 C44.6816,-0.0175 56.2946,1.6275 62.1026,10.3345 C69.5856,21.5525 61.6416,36.2775 51.4576,42.7445 L50.2326,39.6525 C58.3726,33.3275 64.8396,21.9105 58.7666,12.2895 L58.7666,12.2895 Z M44.7146,25.7235 C48.2326,20.8415 45.3906,12.8565 39.2436,11.9135 L41.1366,16.6905 C42.1796,17.3215 42.8526,18.7555 42.6326,20.4685 L44.7146,25.7235 Z" id="Fill-25" fill="#0E9ED0" mask="url(#mask-2)"></path>
                    <path d="M25.6636,29.8972 L27.7426,23.1362 C27.8776,22.6912 28.0126,22.2042 28.1476,21.6782 C28.2836,21.1422 28.4186,20.6162 28.5446,20.0892 C28.6716,19.5542 28.7816,19.0682 28.8826,18.6292 C28.9846,18.1922 29.0686,17.8362 29.1196,17.5682 L29.2126,17.1552 L29.3136,17.1552 L29.4076,17.5682 C29.4656,17.8362 29.5416,18.1922 29.6436,18.6292 L29.9816,20.0892 C30.1086,20.6162 30.2436,21.1422 30.3786,21.6782 C30.5136,22.2042 30.6486,22.6912 30.7846,23.1362 L32.8116,29.8972 L25.6636,29.8972 Z M33.9266,9.2282 L24.5986,9.2282 L12.2806,44.0002 L21.4056,44.0002 L23.5856,36.7052 L34.8906,36.7052 L37.1206,44.0002 L46.2456,44.0002 L33.9266,9.2282 Z" id="Fill-26" fill="#00354A" mask="url(#mask-2)"></path>
                </g>
            </g>
        </g>
    </g>
</svg>